<svg width="35" height="26" viewBox="0 0 35 26" fill="none" xmlns="http://www.w3.org/2000/svg">
<g clip-path="url(#clip0_317_23)">
<path d="M33 0.5H2C1.17157 0.5 0.5 1.17157 0.5 2V24C0.5 24.8284 1.17157 25.5 2 25.5H33C33.8284 25.5 34.5 24.8284 34.5 24V2C34.5 1.17157 33.8284 0.5 33 0.5Z" stroke="black" stroke-opacity="0.26"/>
<path d="M13.8393 14.3318H13.7923C13.2004 14.3318 12.6086 14.3312 12.0168 14.3306H11.9362C11.9406 14.3073 11.9457 14.2841 11.9508 14.2609C12.3826 12.1237 13.0779 9.59407 13.8799 7.46001C13.885 7.44656 13.8901 7.43311 13.8951 7.41966H13.9421C15.5087 7.41905 17.0758 7.41843 18.643 7.41905H18.7224C18.716 7.44167 18.7097 7.4643 18.7033 7.48753C18.5909 7.89355 18.4741 8.31547 18.3541 8.74779C18.3503 8.76246 18.3464 8.77652 18.342 8.7912H18.2937C17.3038 8.7912 16.3126 8.7912 15.3245 8.79242C15.1797 9.25715 15.0369 9.73349 14.8984 10.2123C15.8014 10.2117 16.7075 10.2117 17.6143 10.2117H17.6968C17.6899 10.2373 17.6829 10.2618 17.6753 10.2875C17.5508 10.7357 17.4263 11.1857 17.3025 11.6327C17.2987 11.648 17.2949 11.6627 17.2905 11.6774H17.2409C16.324 11.6774 15.4071 11.6768 14.4946 11.6755C14.252 12.5787 14.0329 13.4659 13.8469 14.2914C13.845 14.3049 13.8424 14.3177 13.8393 14.3318Z" fill="#D2003A"/>
<path d="M11.6117 14.33H11.5463C10.9468 14.3293 10.348 14.3287 9.74925 14.3281H9.69146C9.68829 14.3104 9.68575 14.292 9.68321 14.2743C9.62098 13.8573 9.567 13.4305 9.52128 12.9969C8.81707 12.9933 8.11858 12.9896 7.42643 12.9853C7.18895 13.4262 6.9559 13.8622 6.72095 14.2957C6.71587 14.3055 6.7108 14.3147 6.70508 14.3245H6.67016C6.08405 14.3238 5.49859 14.3226 4.91376 14.322H4.80644C4.82486 14.2927 4.84264 14.2633 4.86105 14.234C6.2155 12.0204 7.42771 9.66317 9.09584 7.45023C9.10282 7.44106 9.10917 7.4325 9.11616 7.42333H9.15045C9.78925 7.42272 10.4281 7.42211 11.0675 7.42149H11.1246C11.124 7.43861 11.1234 7.45635 11.1227 7.47347C11.058 9.62526 11.2231 12.1182 11.6009 14.2713C11.6047 14.2908 11.6079 14.3104 11.6117 14.33ZM8.17827 11.5924C8.59229 11.5936 9.00884 11.5942 9.42858 11.5954C9.38857 10.9204 9.36762 10.241 9.36571 9.57022C8.94788 10.2428 8.55355 10.9216 8.17827 11.5924Z" fill="#005FAA"/>
<path d="M23.1369 14.3306H23.0708C22.4714 14.3306 21.8719 14.3312 21.2719 14.3318H21.2135C21.2141 14.3141 21.2147 14.2969 21.2154 14.2798C21.2268 13.8714 21.2319 13.447 21.2312 13.0141C20.5105 13.0159 19.7879 13.0165 19.0634 13.0171C18.7852 13.4592 18.5084 13.8909 18.2366 14.3055C18.2309 14.3147 18.2245 14.3232 18.2188 14.3324H18.1839C17.594 14.3324 17.0041 14.3324 16.4148 14.3324H16.3068C16.3246 14.3049 16.343 14.2774 16.3608 14.2505C17.74 12.1274 19.3453 9.56106 20.6242 7.44596C20.6293 7.4374 20.6343 7.42822 20.6401 7.41905H20.675C21.3144 7.41966 21.9539 7.41966 22.5933 7.42027H22.6498C22.6524 7.4374 22.6555 7.45452 22.6581 7.47164C23.0162 9.61303 23.187 12.1299 23.1394 14.2719C23.1375 14.2914 23.1369 14.311 23.1369 14.3306ZM19.927 11.6046C20.3626 11.6046 20.7975 11.604 21.2312 11.6034C21.2141 10.9216 21.1836 10.2325 21.1404 9.55616C20.7512 10.2318 20.3429 10.9216 19.927 11.6046Z" fill="#005FAA"/>
<path d="M30.2952 7.80062C30.158 8.30998 30.0285 8.81812 29.8996 9.32809C29.8519 9.32809 29.8037 9.32748 29.756 9.32748C29.5522 9.12263 29.2938 8.94041 28.9661 8.80099C28.2295 8.48792 27.5437 8.48119 27.0459 8.71845C26.675 8.89516 26.3798 9.29874 26.6452 9.65706C26.8732 9.96525 28.26 10.0723 28.9217 10.504C29.624 10.9626 29.5357 11.6725 29.4163 12.1641C29.2068 12.8312 28.7832 13.3834 28.1025 13.7876C27.4231 14.2181 26.5836 14.4113 25.647 14.4113C24.4265 14.4113 23.601 14.0548 23.3089 13.9154C23.5064 13.3944 23.6937 12.8545 23.8684 12.3078C23.9204 12.3078 23.9712 12.3078 24.0227 12.3072C24.2824 12.5983 24.5885 12.8349 24.9555 12.9713C25.5771 13.203 27.1703 13.4739 27.5475 12.4644C27.6644 12.1513 27.4491 11.922 27.1062 11.8107C26.3772 11.5734 25.0971 11.4787 24.7472 10.6519C24.6069 10.3205 24.5878 9.93956 24.6881 9.44305C24.8437 8.80099 25.1847 8.33444 25.8565 7.92291C27.2592 7.06379 28.8797 7.36525 29.2747 7.45147C29.6684 7.5383 30.0297 7.65509 30.2952 7.80062Z" fill="#005FAA"/>
<path d="M7.18704 17.5066L7.1572 17.6136C6.99591 18.1933 7.1445 18.5754 8.06334 18.5754C8.75103 18.5754 9.33714 18.2605 9.5143 17.6246C9.6413 17.169 9.52065 16.9214 9.05012 16.7581L8.60181 16.6004C8.35226 16.516 8.304 16.3925 8.34464 16.2463C8.40433 16.0323 8.61324 15.9198 8.82088 15.9198C9.08758 15.9198 9.14029 16.0714 9.05583 16.3753H9.79116L9.82545 16.2512C9.97721 15.7058 9.71496 15.3909 8.97392 15.3909C8.13191 15.3909 7.68551 15.8012 7.54645 16.302C7.42707 16.7294 7.58455 16.9935 7.99349 17.1458L8.51418 17.3427C8.65833 17.399 8.77008 17.4888 8.71484 17.6857C8.64753 17.9279 8.44814 18.0459 8.19922 18.0459C7.92046 18.0459 7.82077 17.8716 7.89443 17.6069L7.92237 17.5054H7.18704V17.5066ZM9.99499 16.9838C9.70226 18.0361 9.81973 18.5926 10.8091 18.5761C11.7457 18.5761 12.2213 18.019 12.5096 16.9838C12.8029 15.932 12.6848 15.375 11.6955 15.3921C10.7589 15.3915 10.2833 15.9485 9.99499 16.9838ZM10.8135 16.9838C10.9856 16.365 11.145 15.921 11.5482 15.921C11.8803 15.921 11.9006 16.2304 11.6911 16.9838C11.4809 17.7377 11.2885 18.0471 10.9564 18.0471C10.5532 18.0471 10.6414 17.6026 10.8135 16.9838ZM12.5909 18.4966H13.4094L14.1053 15.9987H14.5797L14.727 15.4697H14.2526L14.2984 15.3267C14.3466 15.1524 14.4488 15.0845 14.68 15.0845C14.7333 15.0845 14.7867 15.0845 14.8387 15.09L14.9924 14.5385C14.847 14.5275 14.7067 14.5213 14.5581 14.5213C14.0304 14.5213 13.6538 14.7011 13.5021 15.2472L13.4341 15.4691H13.0188L12.8715 15.9981H13.2868L12.5909 18.4966ZM15.3029 15.4704H14.8876L14.7403 15.9993H15.1556L14.673 17.7322C14.5022 18.3455 14.5695 18.5308 15.2096 18.5308C15.3994 18.5308 15.5696 18.5137 15.7525 18.4972L15.903 17.9572C15.8477 17.9627 15.7811 17.9689 15.7163 17.9689C15.4788 17.9689 15.4521 17.8729 15.5182 17.6368L15.9741 15.9999H16.4484L16.5958 15.471H16.1214L16.3075 14.8289H15.489L15.3029 15.4704ZM16.4999 18.4966H17.4486L18.4442 16.3478H18.4563L18.2791 18.4966H19.21L20.7404 15.4704H19.9574L18.9732 17.6191H18.9611L19.1389 15.4704H18.2493L17.2536 17.6191H17.2416L17.4663 15.4704H16.6491L16.4999 18.4966ZM21.5259 16.3986L21.5494 16.3142C21.6154 16.0776 21.7894 15.9204 22.0389 15.9204C22.3114 15.9204 22.3793 16.061 22.3152 16.2916C22.2587 16.494 22.1507 16.5839 21.8904 16.6456L21.3951 16.7636C20.7912 16.9098 20.4838 17.1403 20.3251 17.709C20.2121 18.1138 20.2857 18.5754 20.8547 18.5754C21.2458 18.5754 21.4992 18.4966 21.7767 18.1816H21.7888C21.7843 18.2825 21.7754 18.4012 21.8021 18.4966H22.585C22.5508 18.3223 22.5692 18.1933 22.6473 17.9114L23.0905 16.3197C23.2423 15.7737 23.1654 15.3915 22.1926 15.3915C21.576 15.3915 21.0058 15.6275 20.8115 16.3252L20.7912 16.3986H21.5259ZM21.9558 17.58C21.8631 17.912 21.5411 18.0471 21.3214 18.0471C21.1017 18.0471 21.0661 17.8557 21.1309 17.6252C21.2058 17.3549 21.3785 17.2033 21.7297 17.136C21.8364 17.1134 21.9869 17.0626 22.1215 16.9838L21.9558 17.58ZM23.0645 18.4966H23.883L24.3891 16.6799C24.5021 16.2751 24.8615 16.1338 25.146 16.1338C25.2292 16.1338 25.3162 16.1393 25.3981 16.1448L25.6051 15.4025C25.5594 15.397 25.5073 15.3915 25.4603 15.3915C25.1225 15.3915 24.838 15.5829 24.5904 15.8752H24.5783L24.6913 15.4704H23.9071L23.0645 18.4966ZM27.7463 17.1018L27.7952 16.9269C28.0536 15.9987 28.0092 15.3915 27.0548 15.3915C25.9518 15.3915 25.5759 16.1448 25.3498 16.955C25.1396 17.709 24.946 18.5754 26.1321 18.5754C26.903 18.5754 27.3685 18.1816 27.5939 17.4784H26.8586C26.7074 17.8496 26.5404 18.0465 26.2674 18.0465C25.9651 18.0465 25.9613 17.6974 26.0597 17.3433L26.127 17.1012H27.7463V17.1018ZM26.2559 16.6407L26.289 16.5227C26.3671 16.2414 26.5512 15.921 26.8776 15.921C27.2154 15.921 27.2027 16.1797 27.0922 16.6413H26.2559V16.6407Z" fill="#005FAA"/>
</g>
<defs>
<clipPath id="clip0_317_23">
<rect width="35" height="26" fill="white"/>
</clipPath>
</defs>
</svg>
